# xmcd
#
# Track frame offsets:
#  150
#  14847
#  33262
#  57589
#  75427
#  101698
#  124690
#  151957
#  174931
#  188300
#  207073
#  233959
#  258424
#  279046
#  308900
#
# Disc length: 4493 seconds
#
# Revision: 0
# Processed by: cddbd v1.5.1PL0 Copyright (c) Steve Scherf et al.
# Submitted via: Collectorz.com_Music_Collector 6.9
#
DISCID=b8118b0f
DTITLE=Chas - Chas
DYEAR=2003
DGENRE=Blues -  Blues Harmonica
TTITLE0=Moonshine
TTITLE1=Savannah
TTITLE2=Too Blue To Be True
TTITLE3=High And Dry
TTITLE4=Hoping Endlessly
TTITLE5=Do I Look Good In Blue
TTITLE6=Kimberly
TTITLE7=Once In A Lifetime
TTITLE8=Right Back Jack
TTITLE9=Pond Scum
TTITLE10=The Visitor
TTITLE11=C.E.O.
TTITLE12=When A Good Love Goes Awry
TTITLE13=Big Old Freight Train
TTITLE14=Then There's You
EXTD=
EXTT0=
EXTT1=
EXTT2=
EXTT3=
EXTT4=
EXTT5=
EXTT6=
EXTT7=
EXTT8=
EXTT9=
EXTT10=
EXTT11=
EXTT12=
EXTT13=
EXTT14=
PLAYORDER=
